<?xml version="1.0" standalone="no"?>
<!DOCTYPE svg PUBLIC "-//W3C//DTD SVG 20010904//EN"
 "http://www.w3.org/TR/2001/REC-SVG-20010904/DTD/svg10.dtd">
<svg version="1.0" xmlns="http://www.w3.org/2000/svg"
 width="798.000000pt" height="823.000000pt" viewBox="0 0 798.000000 823.000000"
 preserveAspectRatio="xMidYMid meet">

<g transform="translate(0.000000,823.000000) scale(0.100000,-0.100000)"
fill="#000000" stroke="none">
<path d="M4075 8203 c-33 -2 -190 -10 -349 -17 -267 -12 -291 -15 -306 -33 -9
-12 -38 -129 -69 -279 -29 -142 -56 -270 -60 -283 -6 -21 -26 -29 -206 -77
-110 -30 -210 -54 -221 -54 -14 0 -39 20 -70 58 -27 31 -74 84 -104 118 -30
33 -78 87 -107 120 -122 140 -122 140 -196 103 -23 -12 -170 -96 -327 -187
-157 -91 -328 -190 -380 -220 -52 -30 -98 -60 -102 -66 -16 -24 -5 -68 58
-221 36 -88 81 -200 101 -250 l36 -89 -149 -144 c-82 -78 -156 -147 -165 -152
-12 -7 -75 19 -243 100 -134 65 -239 110 -256 110 -39 0 -21 25 -359 -502 -58
-90 -129 -199 -158 -244 -29 -44 -53 -92 -53 -105 0 -20 47 -72 205 -228 113
-112 205 -210 205 -217 0 -8 -21 -85 -46 -172 -26 -86 -49 -167 -51 -179 -6
-26 13 -22 -315 -73 -142 -22 -264 -43 -272 -46 -8 -3 -17 -13 -21 -22 -3 -9
-17 -145 -30 -302 -14 -157 -29 -337 -35 -402 -16 -179 -14 -251 8 -264 9 -6
134 -44 277 -84 143 -40 262 -74 264 -76 4 -4 81 -413 81 -434 0 -17 -6 -21
-268 -175 -101 -60 -191 -120 -200 -133 -18 -28 -13 -48 58 -217 21 -49 73
-175 116 -280 166 -411 180 -439 206 -452 25 -13 20 -14 483 112 72 20 92 22
100 12 6 -7 79 -105 164 -217 85 -113 162 -210 170 -217 43 -33 48 -29 366
272 88 83 194 182 235 220 160 147 173 162 173 192 0 21 -20 55 -69 119 -110
141 -225 329 -289 469 -14 33 -33 74 -41 90 -32 70 -97 258 -124 360 -159 600
-90 1206 200 1751 60 112 201 321 285 422 171 206 458 426 735 563 688 339
1447 333 2145 -19 292 -147 456 -277 680 -542 121 -143 151 -183 226 -298 320
-491 425 -1103 295 -1717 -81 -380 -267 -761 -475 -972 -76 -77 -86 -104 -53
-141 9 -11 130 -109 267 -218 138 -108 308 -244 380 -301 136 -109 163 -120
201 -84 10 10 84 113 164 229 80 116 150 213 156 215 6 3 105 -13 220 -35 115
-21 241 -42 281 -45 85 -7 74 -21 153 197 28 80 69 192 91 250 169 459 171
466 151 496 -4 7 -113 78 -242 159 -129 81 -236 148 -238 150 -2 2 11 94 28
206 29 190 37 218 65 219 11 0 420 133 468 152 54 21 54 -3 2 443 -8 66 -24
212 -37 324 -19 172 -26 209 -43 228 -19 23 -32 25 -270 43 -137 11 -271 22
-296 25 l-46 6 -51 174 c-29 95 -52 180 -52 188 0 9 88 108 195 221 139 147
195 213 195 230 0 13 -46 91 -103 177 -371 552 -415 614 -440 623 -25 9 -38 5
-162 -49 -34 -15 -188 -81 -310 -132 -43 -18 -85 -33 -93 -33 -7 0 -80 66
-162 146 l-148 145 13 47 c7 26 43 150 79 276 48 167 64 236 58 254 -8 25 -20
32 -367 211 -99 52 -244 127 -322 168 -108 56 -151 74 -175 71 -34 -3 -49 -19
-305 -315 -63 -73 -121 -133 -128 -133 -11 0 -258 59 -377 91 l-36 9 -41 168
c-22 92 -52 218 -66 280 -15 62 -34 119 -42 127 -14 15 -142 18 -318 8z m290
-397 c32 -142 66 -267 74 -277 11 -13 95 -38 278 -84 144 -36 270 -65 279 -65
20 0 55 37 241 254 81 94 152 177 159 185 10 11 69 -16 351 -163 187 -97 347
-182 356 -189 14 -11 8 -37 -59 -262 -40 -137 -74 -264 -74 -281 0 -28 23 -54
185 -215 102 -101 198 -190 214 -198 30 -14 48 -7 457 170 50 21 96 39 102 39
8 0 429 -613 440 -641 2 -5 -82 -99 -187 -210 -208 -220 -204 -212 -175 -304
8 -27 39 -131 69 -229 29 -98 60 -185 68 -194 11 -11 88 -20 303 -38 159 -13
291 -28 295 -32 3 -4 12 -61 19 -127 6 -66 25 -228 41 -360 16 -132 29 -254
29 -271 l0 -30 -246 -80 c-135 -43 -254 -86 -263 -96 -13 -11 -23 -50 -35
-135 -10 -65 -26 -172 -37 -238 -24 -150 -24 -188 -1 -207 9 -8 73 -50 142
-93 69 -43 148 -92 175 -110 28 -18 71 -44 98 -59 26 -16 47 -30 47 -33 0 -4
-241 -672 -266 -738 -5 -13 -14 -15 -38 -10 -173 36 -471 86 -501 83 -31 -3
-59 -39 -267 -345 -35 -51 -66 -93 -70 -93 -5 0 -140 104 -348 270 -19 15 -94
75 -166 132 l-131 104 72 85 c203 242 369 616 444 999 38 200 45 266 45 485 1
416 -70 727 -246 1080 -70 141 -232 383 -315 470 -10 11 -53 61 -95 111 -120
143 -270 275 -418 370 -25 16 -47 31 -50 34 -22 22 -327 174 -430 213 -162 63
-349 114 -545 148 -146 26 -434 35 -590 20 -584 -58 -1124 -309 -1543 -715
-199 -192 -414 -520 -537 -816 -199 -480 -239 -1023 -115 -1550 77 -326 276
-747 469 -993 l45 -59 -74 -71 c-64 -62 -202 -191 -451 -425 l-56 -52 -159
211 c-87 116 -168 215 -180 220 -22 8 -182 -31 -440 -105 -49 -15 -96 -26
-105 -26 -12 0 -43 64 -119 253 -57 138 -125 306 -152 371 -27 66 -47 125 -44
131 2 7 18 19 35 26 17 8 31 17 31 21 0 5 4 8 9 8 16 0 345 200 370 224 l23
24 -47 268 c-58 332 -53 312 -80 330 -12 8 -133 45 -269 83 -135 37 -249 71
-253 74 -11 11 52 767 64 777 5 4 58 14 118 23 321 50 429 69 445 79 10 7 28
43 39 82 80 261 121 409 121 433 0 23 -35 62 -200 222 -110 106 -200 196 -200
200 0 4 69 115 154 247 85 131 183 283 218 338 35 54 69 101 76 103 7 3 111
-43 233 -101 121 -58 231 -106 246 -106 18 0 48 22 106 78 45 42 115 109 157
148 178 169 180 171 180 198 0 14 -43 131 -95 260 -52 129 -95 241 -95 249 0
8 57 47 128 87 70 40 163 94 207 120 243 143 362 210 371 210 5 0 79 -79 164
-177 214 -243 203 -233 239 -233 17 0 88 16 158 35 71 19 186 51 258 70 71 19
135 41 142 47 7 7 37 132 68 278 30 146 58 272 61 282 4 13 26 17 132 22 70 4
156 8 192 11 36 2 148 7 250 11 102 4 187 8 189 11 15 12 34 -49 86 -281z"/>
<path d="M3794 7327 c-3 -8 0 -60 5 -117 6 -56 11 -109 11 -118 0 -9 -34 34
-75 95 -41 62 -83 117 -93 122 -22 11 -90 4 -110 -12 -15 -12 -13 -37 14 -277
8 -69 14 -131 14 -137 0 -17 74 -17 88 0 7 8 6 50 -3 137 -8 68 -13 125 -11
127 1 1 39 -54 85 -122 90 -136 93 -138 179 -120 19 5 22 11 21 58 0 28 -8
124 -17 212 l-17 160 -43 3 c-29 2 -44 -1 -48 -11z"/>
<path d="M4004 7326 c-3 -7 -6 -105 -7 -217 l-2 -204 120 -8 c107 -6 121 -5
133 10 13 19 15 42 4 59 -4 7 -41 14 -82 17 -41 3 -76 6 -77 6 -6 2 -1 57 6
75 6 15 18 19 72 20 l64 1 3 34 c4 43 -8 51 -80 51 l-58 0 0 40 0 40 80 0 c78
0 80 1 86 27 13 51 -2 58 -135 61 -97 2 -122 0 -127 -12z"/>
<path d="M4375 7309 c-4 -5 -22 -99 -40 -207 -24 -142 -30 -201 -22 -210 6 -8
26 -12 51 -10 l41 3 14 78 c9 47 19 77 27 77 21 0 43 -28 53 -68 5 -20 14 -56
20 -78 12 -44 27 -54 84 -54 23 0 27 4 27 28 0 25 -28 135 -44 174 -5 11 -1
18 14 23 51 16 78 124 44 173 -23 33 -80 58 -161 71 -89 14 -100 14 -108 0z
m153 -105 c27 -19 29 -60 3 -74 -11 -5 -33 -10 -50 -10 -34 0 -37 9 -25 69 7
36 35 41 72 15z"/>
<path d="M3342 7270 c-12 -5 -25 -16 -28 -23 -2 -7 15 -103 39 -213 l43 -199
39 2 c60 4 67 16 50 93 -8 36 -26 121 -41 190 -15 69 -31 133 -36 143 -10 19
-30 21 -66 7z"/>
<path d="M4733 7083 c-73 -272 -69 -253 -53 -263 19 -12 79 -24 86 -17 3 3 19
56 35 118 17 63 41 153 54 201 l24 88 -22 15 c-12 8 -35 15 -52 15 l-30 0 -42
-157z"/>
<path d="M3143 7218 c-29 -14 -29 -29 1 -125 69 -223 70 -233 21 -233 -32 0
-35 -3 -35 -27 1 -49 23 -66 77 -60 56 6 103 49 103 96 0 27 -71 294 -90 339
-10 24 -40 28 -77 10z"/>
<path d="M4944 7083 c-20 -54 -54 -141 -75 -193 -33 -85 -36 -97 -23 -111 17
-18 57 -30 72 -20 5 3 29 59 53 123 24 64 45 115 48 113 2 -3 12 -69 22 -147
15 -123 20 -145 39 -160 29 -24 69 -33 88 -22 15 10 152 355 152 384 0 20 -52
45 -73 37 -8 -3 -34 -59 -58 -124 l-43 -118 -17 142 c-10 79 -21 148 -24 154
-10 15 -69 39 -99 39 -21 0 -28 -11 -62 -97z"/>
<path d="M2898 7136 c-10 -7 -18 -17 -18 -22 0 -5 20 -56 45 -113 25 -57 44
-106 42 -107 -2 -2 -17 7 -33 20 -138 114 -181 146 -196 146 -10 0 -36 -7 -58
-16 -30 -12 -40 -22 -40 -38 0 -20 41 -125 123 -321 24 -56 28 -60 58 -58 17
0 38 8 47 16 13 14 10 28 -36 131 -27 63 -48 117 -45 119 2 3 14 -3 26 -13
155 -131 194 -160 220 -160 39 0 87 30 87 54 0 11 -34 100 -76 198 -71 167
-78 178 -103 178 -14 0 -34 -7 -43 -14z"/>
<path d="M2440 6914 c-41 -24 -85 -49 -97 -56 -45 -23 -39 -42 67 -220 57 -93
109 -172 116 -175 14 -5 203 100 216 120 9 15 -19 67 -37 67 -8 0 -40 -15 -72
-34 -32 -19 -61 -32 -64 -30 -4 2 -16 20 -28 39 l-21 35 55 36 c30 19 55 39
55 45 0 14 -31 59 -41 59 -5 0 -32 -14 -59 -31 -49 -30 -52 -31 -65 -13 -16
20 -29 54 -23 58 1 2 29 17 61 35 34 20 57 39 57 50 0 18 -27 61 -38 60 -4 0
-41 -20 -82 -45z"/>
<path d="M5454 6939 c-54 -12 -118 -69 -151 -133 -54 -104 -29 -205 69 -276
53 -39 143 -68 166 -54 24 15 114 174 108 190 -5 12 -37 35 -113 79 -31 18
-33 18 -53 0 -29 -26 -25 -53 10 -73 34 -20 35 -23 15 -62 -18 -35 -27 -37
-71 -10 -115 72 -10 283 120 240 35 -11 80 -49 106 -88 19 -29 44 -21 60 18
14 34 3 61 -43 102 -63 57 -149 83 -223 67z"/>
<path d="M2066 6661 c-28 -29 -28 -32 -22 -108 4 -43 10 -86 12 -95 9 -31 -10
-18 -56 37 -24 30 -47 55 -51 55 -14 0 -69 -52 -69 -66 0 -7 21 -37 46 -66
134 -153 172 -196 200 -227 l32 -35 36 27 c20 16 36 33 36 40 0 7 -25 40 -56
75 -31 34 -52 62 -47 62 4 0 44 -11 87 -25 103 -33 126 -32 161 5 39 41 26 52
-98 85 -56 15 -107 28 -113 30 -13 4 -24 74 -24 147 0 53 -13 88 -33 88 -8 0
-26 -13 -41 -29z"/>
<path d="M5886 6601 c-30 -37 -61 -74 -68 -82 -48 -50 -138 -168 -138 -182 0
-16 49 -57 68 -57 15 0 266 307 270 329 3 18 -44 61 -67 61 -5 0 -35 -31 -65
-69z"/>
<path d="M6036 6462 c-39 -38 -106 -101 -148 -142 -43 -40 -78 -79 -78 -85 0
-16 43 -55 61 -55 8 1 54 39 103 85 49 47 90 84 92 82 2 -1 -15 -56 -37 -122
-46 -140 -49 -167 -22 -203 41 -55 58 -46 220 112 l148 144 -29 31 c-17 17
-33 31 -38 31 -5 0 -45 -36 -91 -80 -45 -43 -83 -76 -85 -72 -1 4 14 56 33
116 45 138 45 156 0 195 -20 17 -41 31 -46 31 -6 0 -43 -31 -83 -68z"/>
<path d="M1755 6373 c-14 -15 -25 -33 -25 -39 0 -7 64 -72 143 -145 78 -74
144 -137 145 -141 2 -5 12 -8 22 -8 23 0 73 58 63 73 -6 11 -92 93 -244 235
-31 29 -61 52 -67 52 -6 0 -23 -12 -37 -27z"/>
<path d="M1617 6222 c-31 -34 -21 -56 51 -107 37 -27 69 -52 72 -55 3 -3 16
-14 30 -23 l25 -18 -45 7 c-25 3 -85 12 -133 19 -101 16 -122 11 -154 -34 -30
-40 -29 -67 5 -88 15 -10 89 -64 164 -120 76 -57 143 -100 151 -98 12 5 47 56
47 68 0 3 -48 40 -106 82 -58 43 -104 79 -102 81 2 2 58 -6 123 -16 165 -27
178 -26 209 11 34 40 33 72 -1 95 -15 9 -32 21 -38 26 -65 55 -254 188 -266
188 -9 0 -23 -8 -32 -18z"/>
<path d="M6275 6057 c-88 -62 -161 -120 -163 -129 -4 -19 62 -121 105 -164 41
-41 108 -67 155 -60 85 14 183 86 209 153 16 42 10 111 -12 156 -46 90 -99
157 -123 157 -6 -1 -83 -51 -171 -113z m194 -46 c32 -44 27 -93 -11 -137 -64
-73 -138 -84 -193 -29 -19 20 -35 39 -35 43 0 5 28 27 63 50 34 23 80 55 102
71 22 17 43 31 47 31 4 0 16 -13 27 -29z"/>
<path d="M1343 5825 l-17 -36 42 -85 c23 -46 42 -87 42 -89 0 -3 -27 8 -60 25
-33 16 -66 30 -74 30 -16 0 -46 -48 -46 -73 0 -8 78 -55 187 -112 l186 -98 24
28 c37 42 27 63 -49 104 -38 20 -68 39 -68 42 0 3 42 9 93 12 51 3 100 9 109
12 8 3 22 22 32 42 15 31 15 38 3 50 -11 11 -30 12 -103 3 -161 -18 -147 -24
-198 85 -51 109 -73 122 -103 60z"/>
<path d="M6534 5720 c-94 -37 -164 -117 -164 -187 0 -90 79 -202 158 -223 84
-22 215 27 276 103 27 34 31 47 31 100 0 77 -32 145 -89 190 -51 41 -135 47
-212 17z m175 -111 c76 -71 1 -181 -134 -196 -30 -4 -46 0 -67 16 -29 23 -45
75 -33 110 8 28 80 76 130 88 50 11 77 7 104 -18z"/>
<path d="M1173 5478 c-17 -23 -83 -217 -77 -231 6 -16 360 -149 387 -145 17 2
29 25 59 103 45 120 47 142 13 151 -40 10 -51 0 -76 -71 -21 -59 -25 -66 -46
-60 -49 12 -74 26 -70 38 3 6 14 36 23 65 20 60 14 72 -37 72 -23 0 -29 -7
-49 -59 -20 -54 -24 -59 -43 -51 -12 5 -30 11 -39 14 -16 5 -15 10 7 71 32 84
31 91 -6 104 -39 13 -35 14 -46 -1z"/>
<path d="M6840 5305 c-235 -69 -314 -95 -320 -106 -9 -13 4 -67 19 -82 7 -7
35 -3 82 11 39 12 75 19 80 16 23 -14 4 -47 -58 -102 l-68 -61 13 -43 c7 -24
17 -61 21 -83 10 -57 15 -62 65 -69 l45 -7 6 -57 c4 -31 9 -64 11 -72 3 -11
-11 -23 -42 -38 -46 -23 -46 -23 -41 -64 3 -22 11 -46 17 -52 8 -8 58 13 196
84 102 52 192 103 201 112 12 14 14 27 7 65 -11 58 -9 58 -249 103 -93 18
-172 34 -174 36 -3 3 25 33 62 67 55 52 70 60 80 49 23 -23 84 -26 127 -7 31
14 43 27 56 60 17 46 12 91 -24 200 -19 57 -35 63 -112 40z m45 -155 c0 -43
-1 -45 -32 -48 -23 -2 -35 3 -47 20 -25 35 -20 54 17 66 53 17 62 12 62 -38z
m40 -407 c15 -4 7 -12 -39 -35 -32 -16 -60 -27 -62 -25 -3 3 -8 21 -11 42 l-6
38 49 -7 c27 -4 58 -10 69 -13z"/>
<path d="M1055 5158 c-2 -7 -20 -77 -38 -156 -38 -158 -36 -172 23 -172 25 0
29 5 40 50 7 28 17 50 23 50 7 0 83 -16 169 -37 87 -20 160 -34 164 -31 12 13
23 83 14 94 -6 6 -77 26 -160 44 -83 19 -154 37 -159 40 -6 3 -5 25 1 54 9 44
8 51 -8 63 -23 16 -63 17 -69 1z"/>
<path d="M964 4735 c-12 -65 -19 -62 272 -101 72 -10 138 -15 147 -11 18 7 34
74 21 87 -10 10 -345 60 -400 60 -30 0 -34 -3 -40 -35z"/>
<path d="M1305 4588 c-2 -7 -7 -39 -10 -72 l-7 -59 -171 4 -172 4 0 -50 0 -50
125 -8 c69 -4 166 -6 215 -5 l90 3 9 114 c7 93 6 115 -5 122 -21 13 -69 11
-74 -3z"/>
<path d="M6677 4463 c-4 -3 -7 -25 -7 -48 0 -40 2 -43 31 -49 17 -3 78 -6 135
-6 57 0 104 -4 104 -8 0 -5 -58 -26 -129 -46 -71 -21 -134 -43 -140 -49 -15
-15 -14 -84 2 -94 16 -10 160 -70 215 -90 47 -17 58 -38 15 -29 -25 5 -208 10
-241 7 -9 -1 -12 -15 -10 -48 l3 -48 203 -9 c111 -4 209 -5 217 -2 19 7 21
128 3 144 -7 5 -62 31 -123 56 -60 26 -113 51 -118 55 -4 4 47 24 113 45 143
44 160 58 160 132 0 29 -5 56 -12 62 -7 5 -71 13 -143 16 -71 4 -162 9 -201
12 -39 2 -73 1 -77 -3z"/>
<path d="M1082 4277 c-100 -28 -147 -99 -139 -210 6 -84 40 -140 107 -175 40
-21 55 -23 130 -19 91 5 128 18 173 62 65 66 58 228 -13 296 -52 50 -170 71
-258 46z m173 -111 c26 -11 36 -24 46 -54 25 -84 -37 -136 -154 -130 -79 4
-106 24 -114 85 -4 32 -1 45 19 67 37 43 138 59 203 32z"/>
<path d="M6637 3923 c-3 -5 -8 -22 -11 -40 -6 -25 -3 -35 15 -52 12 -11 31
-24 42 -27 21 -6 20 -34 -3 -116 -10 -34 -14 -37 -63 -45 -51 -8 -52 -9 -61
-51 -6 -27 -5 -47 1 -53 12 -12 428 30 449 46 8 5 17 33 20 61 l7 52 -59 38
c-292 188 -326 206 -337 187z m208 -217 c50 -30 54 -34 33 -40 -13 -3 -44 -6
-69 -6 l-47 0 10 40 c6 22 12 40 14 40 2 0 28 -15 59 -34z"/>
<path d="M1093 3791 c-83 -39 -97 -136 -41 -283 7 -20 17 -28 34 -28 14 0 108
21 209 46 181 46 185 47 185 73 0 14 -3 37 -7 50 -6 25 -9 25 -113 6 -35 -7
-36 -7 -59 49 -39 94 -120 128 -208 87z m119 -108 c10 -9 18 -26 18 -38 0 -18
-9 -25 -45 -35 -24 -7 -51 -10 -60 -7 -16 7 -21 53 -7 73 17 26 68 30 94 7z"/>
<path d="M3935 6373 c-38 -1 -130 -10 -204 -19 -146 -18 -171 -30 -171 -81 0
-22 -23 -51 -98 -128 -135 -140 -152 -161 -153 -198 -1 -30 -6 -35 -97 -80
l-96 -48 -106 106 c-75 75 -112 105 -129 105 -94 0 -630 -536 -631 -630 0 -18
28 -52 104 -130 l104 -105 -53 -110 c-30 -60 -71 -161 -91 -222 l-37 -113
-148 0 c-185 0 -175 7 -199 -137 -41 -241 -17 -741 37 -780 12 -9 62 -13 163
-13 l146 0 40 -117 c21 -65 62 -165 91 -223 l51 -105 -104 -106 c-70 -72 -104
-113 -104 -129 0 -57 245 -337 435 -497 90 -76 176 -133 199 -133 11 0 45 24
76 55 l55 55 123 12 c101 10 128 10 155 -1 18 -8 85 -32 150 -54 l117 -41 0
-148 c0 -135 2 -150 20 -168 11 -11 32 -20 47 -20 14 0 24 -2 21 -5 -2 -2
-117 -12 -254 -20 -483 -30 -928 -80 -1372 -155 -130 -23 -241 -42 -246 -43
-5 -2 -8 -100 -7 -218 1 -118 -1 -222 -4 -231 -4 -11 -27 -21 -63 -28 -348
-70 -703 -153 -957 -225 -49 -14 -119 -32 -155 -41 -36 -9 -68 -20 -73 -23 -4
-4 84 -33 195 -66 112 -32 253 -73 313 -90 61 -18 169 -50 240 -70 72 -21 134
-41 138 -45 8 -7 -33 -44 -129 -117 -51 -39 -174 -135 -365 -285 -58 -46 -180
-141 -272 -213 -91 -71 -165 -131 -163 -132 2 -2 108 26 237 61 708 192 1235
296 1993 392 l138 18 -66 25 -66 26 0 196 0 196 103 12 c388 42 729 61 1162
64 516 4 826 -9 1277 -54 108 -10 202 -19 208 -19 6 0 10 -67 10 -198 l0 -198
-52 -18 c-75 -27 -77 -33 -11 -40 183 -22 530 -71 683 -96 257 -43 420 -74
725 -141 131 -29 491 -120 704 -178 102 -28 186 -50 187 -48 2 1 -52 45 -118
97 -67 52 -196 154 -287 226 -91 71 -248 195 -349 274 -101 78 -179 146 -175
150 4 4 80 28 168 53 194 56 635 184 690 202 49 15 54 13 -155 69 -390 105
-518 136 -882 212 l-178 38 0 231 0 230 -137 24 c-603 104 -1102 159 -1716
187 -131 6 -145 8 -119 19 16 7 32 20 36 30 3 9 6 81 6 160 l0 144 58 16 c31
9 97 33 147 52 l89 36 125 -12 126 -11 55 -55 c36 -35 64 -55 79 -55 18 0 107
54 131 80 3 3 37 31 75 62 160 129 425 434 425 489 0 17 -32 56 -105 129
l-105 105 53 105 c29 58 70 158 92 222 l40 118 148 0 c129 0 149 2 165 18 47
47 70 491 37 736 -15 115 -26 153 -49 168 -6 4 -76 8 -156 8 l-145 0 -38 111
c-21 62 -62 162 -92 223 l-55 110 105 106 c114 114 121 129 83 183 -132 187
-367 422 -555 555 -54 38 -68 31 -184 -84 l-106 -106 -74 40 c-41 22 -104 52
-140 67 -65 25 -67 27 -72 67 -5 35 -18 53 -81 117 l-76 76 0 57 c0 85 -12 92
-173 112 -138 16 -264 23 -382 19z m171 -152 l-49 -50 5 -172 6 -172 -38 -37
-38 -38 -35 37 -35 36 -7 177 -8 176 -38 39 c-21 21 -38 40 -39 43 0 3 73 6
163 8 l162 4 -49 -51z m-315 -70 c22 -17 23 -26 27 -191 l5 -173 59 -68 c58
-68 84 -89 110 -89 8 0 51 35 96 78 l82 78 -5 125 c-3 68 -8 143 -10 166 -4
35 0 47 20 69 25 26 27 27 118 21 l92 -6 87 -90 86 -91 4 -197 c2 -109 1 -203
-2 -209 -3 -6 -63 -72 -134 -145 l-128 -134 5 -656 5 -656 -92 -92 -91 -91
-108 -6 -108 -6 -94 94 -95 94 0 144 c0 79 -5 376 -10 660 l-11 515 -47 45
c-26 25 -89 84 -140 131 l-93 85 -5 200 -6 199 99 102 98 103 60 3 c33 2 70 4
81 5 12 1 32 -6 45 -17z m-817 -340 c55 -55 110 -102 122 -105 16 -4 52 9 117
44 l94 50 7 -37 c3 -21 6 -86 6 -144 l0 -106 135 -128 136 -128 -32 -14 c-187
-79 -395 -278 -502 -483 -140 -267 -162 -604 -57 -888 39 -103 119 -242 184
-316 14 -16 24 -31 22 -35 -2 -3 -34 -55 -71 -116 -37 -60 -77 -128 -90 -150
-12 -22 -49 -83 -80 -135 -168 -276 -210 -356 -173 -334 8 5 9 -2 5 -26 -4
-18 -7 -46 -7 -62 0 -27 -2 -28 -22 -17 -30 16 -275 258 -313 310 -16 22 -42
57 -57 77 l-26 37 105 107 c87 91 103 112 98 130 -4 13 -33 75 -65 138 -51
101 -84 188 -133 350 -19 63 -37 70 -198 70 l-136 0 -12 58 c-19 93 -25 354
-12 487 19 184 1 165 156 165 74 0 145 4 159 10 20 7 29 23 47 82 36 125 70
209 135 338 35 69 64 132 64 139 0 8 -48 63 -107 122 -98 100 -105 110 -91
126 8 10 24 29 34 42 71 90 147 172 241 259 103 96 202 180 213 181 3 1 50
-44 104 -98z m2278 42 c110 -88 272 -247 355 -351 l75 -94 -107 -108 c-122
-124 -120 -118 -61 -219 51 -90 101 -208 140 -333 25 -80 43 -121 56 -128 10
-5 82 -10 159 -10 l140 0 5 -32 c34 -213 34 -444 0 -645 l-5 -33 -134 0 c-73
0 -144 -4 -158 -9 -20 -8 -31 -31 -66 -138 -23 -70 -73 -192 -111 -270 -39
-77 -70 -146 -70 -153 0 -6 48 -61 107 -121 62 -63 103 -113 97 -117 -6 -4
-30 -33 -53 -65 -76 -104 -353 -379 -367 -365 -10 10 -12 123 -2 129 12 8 9
17 -27 74 -13 22 -32 54 -41 70 -9 17 -41 69 -70 117 -30 48 -54 90 -54 93 0
3 -23 39 -50 80 -28 42 -53 82 -57 91 -3 9 -32 59 -64 111 -45 74 -55 98 -46
108 81 82 171 238 219 380 47 141 64 295 49 444 -17 160 -36 229 -105 373
-102 214 -273 388 -491 498 l-93 47 119 124 118 124 1 157 0 157 59 -30 c33
-16 62 -29 65 -29 2 0 36 -18 75 -41 49 -28 79 -39 94 -35 12 3 67 50 122 106
55 55 101 100 103 100 2 0 35 -26 74 -57z m-754 -734 c250 -138 420 -364 489
-651 14 -55 18 -111 17 -228 -1 -138 -4 -165 -28 -245 -15 -49 -38 -114 -51
-143 -31 -67 -121 -205 -168 -257 -20 -22 -37 -44 -37 -49 0 -15 -155 2 -320
34 -222 44 -300 41 -357 -12 l-23 -21 -23 21 c-55 51 -150 54 -367 11 -85 -16
-185 -33 -221 -36 l-66 -6 -49 57 c-27 32 -61 76 -76 99 -15 23 -32 47 -37 53
-42 51 -116 258 -132 370 -15 103 -5 278 20 376 70 269 242 493 482 627 l56
31 7 -317 c15 -758 19 -902 25 -910 4 -4 56 -56 117 -115 l111 -108 144 0 144
0 124 122 124 121 -7 614 -7 613 26 -10 c14 -5 51 -24 83 -41z m-575 -1562
c33 -14 68 -47 49 -47 -5 0 -23 7 -38 15 -16 8 -45 15 -64 14 l-35 0 38 -13
c62 -22 131 -76 98 -76 -5 0 -22 7 -37 15 -16 8 -45 15 -64 14 l-35 0 36 -13
c52 -18 102 -49 107 -65 4 -11 0 -12 -14 -6 -38 16 -119 35 -134 32 -8 -2 3
-9 25 -15 44 -13 125 -61 125 -75 0 -5 -8 -6 -17 -2 -54 23 -98 35 -112 32 -9
-2 2 -9 24 -16 44 -14 114 -65 103 -76 -3 -4 -21 1 -38 10 -18 9 -58 19 -89
21 l-56 5 57 -19 c58 -20 133 -61 125 -69 -3 -2 -29 3 -58 11 -29 9 -69 16
-88 15 -33 0 -30 -2 24 -18 62 -17 125 -49 125 -63 0 -11 -8 -10 -64 7 -27 8
-70 15 -95 14 l-46 -1 42 -9 c50 -9 119 -40 148 -64 20 -16 20 -16 -5 -10
-145 38 -176 43 -165 25 3 -5 18 -10 33 -10 30 0 152 -59 152 -73 0 -5 -8 -6
-17 -2 -48 19 -111 35 -138 34 -28 0 -27 -1 11 -13 50 -16 144 -66 144 -78 0
-11 -2 -11 -73 11 -34 11 -84 22 -112 25 -47 6 -46 5 25 -17 77 -24 160 -65
160 -81 0 -4 -8 -5 -17 -1 -58 24 -210 48 -218 35 -3 -4 15 -10 39 -13 58 -8
150 -43 178 -68 21 -19 21 -20 3 -15 -11 3 -47 15 -80 26 -49 18 -84 22 -190
23 -138 1 -212 -7 -475 -54 -162 -29 -370 -49 -370 -35 0 7 61 110 233 396 42
69 96 160 122 203 40 68 48 77 69 71 38 -9 240 14 396 45 165 34 207 36 253
18z m465 -22 c132 -27 332 -49 373 -40 15 3 30 1 34 -4 10 -17 -190 -14 -312
5 -112 16 -149 13 -62 -5 78 -17 170 -29 294 -37 99 -7 106 -8 65 -16 -44 -8
-222 4 -337 22 -73 12 -81 5 -11 -9 107 -22 175 -31 291 -38 64 -3 117 -10
117 -15 0 -4 -51 -8 -112 -8 -99 1 -160 6 -298 25 l-35 5 30 -10 c45 -16 217
-39 343 -46 63 -4 112 -11 112 -17 0 -10 -293 -3 -375 9 -22 4 -38 4 -35 1 8
-8 217 -35 333 -43 56 -4 97 -11 97 -17 0 -10 -210 -5 -365 8 -60 4 -60 4 15
-10 41 -8 142 -17 223 -21 81 -4 151 -12 154 -17 4 -7 -60 -8 -190 -4 -109 3
-197 4 -197 3 0 -5 194 -24 320 -32 167 -11 78 -26 -120 -20 -105 3 -149 1
-120 -4 25 -5 116 -12 203 -16 93 -4 157 -11 157 -17 0 -7 -76 -8 -217 -5
-208 5 -214 5 -118 -7 55 -7 161 -16 235 -20 104 -6 129 -10 110 -17 -15 -6
-99 -8 -205 -5 -213 6 -147 -7 93 -19 96 -4 162 -11 162 -17 0 -7 -75 -8 -217
-5 -238 6 -211 -7 37 -17 85 -3 166 -9 180 -12 53 -14 -88 -19 -264 -11 -99 4
-181 7 -183 5 -6 -6 213 -26 360 -34 75 -3 137 -10 137 -15 0 -11 -231 -10
-385 2 -70 6 -129 9 -131 7 -8 -7 274 -37 409 -44 93 -4 136 -10 134 -17 -5
-15 -222 -10 -406 10 -79 8 -145 13 -148 11 -11 -12 382 -57 498 -57 68 0 88
-3 93 -15 4 -12 -4 -15 -47 -15 -57 0 -292 23 -402 39 -87 13 -137 13 -84 1
52 -13 297 -47 434 -61 66 -6 125 -16 130 -22 19 -18 -195 1 -405 37 -365 63
-532 67 -661 16 -27 -11 -53 -20 -57 -20 -10 0 1 666 11 677 38 38 125 37 315
-2z m-504 -695 c34 -12 71 -29 81 -36 18 -14 18 -16 3 -42 -15 -25 -22 -27
-90 -29 -132 -4 -718 -67 -1000 -108 -33 -4 -38 -3 -38 14 0 16 10 20 73 26
110 11 124 25 18 18 -88 -6 -93 -5 -89 13 2 15 15 20 63 25 50 5 53 6 18 7
-51 2 -73 10 -73 27 0 8 29 14 93 19 94 7 158 16 422 60 192 32 218 35 349 31
79 -3 125 -10 170 -25z m886 -20 c129 -23 277 -43 328 -47 50 -3 92 -10 92
-15 0 -4 -39 -9 -87 -10 l-88 -1 93 -10 c50 -5 92 -13 92 -18 0 -7 -13 -11
-90 -22 -14 -3 -2 -5 27 -6 92 -2 70 -20 -29 -23 l-93 -3 81 -9 c77 -8 115
-19 104 -30 -5 -5 -228 19 -530 58 -248 32 -404 46 -505 46 -79 0 -80 1 -97
30 l-17 31 32 20 c32 20 107 44 162 53 82 13 299 -6 525 -44z m-725 -118 c20
-37 20 -37 100 -44 44 -3 132 -9 195 -13 63 -3 133 -10 155 -13 l40 -8 -56
-12 c-95 -22 -94 -18 -97 -191 l-3 -150 -27 -5 c-134 -27 -417 -33 -567 -11
-55 8 -103 15 -107 15 -4 0 -8 67 -10 150 -2 97 -7 153 -15 161 -6 6 -35 20
-64 29 -68 24 -56 26 176 40 105 6 195 13 201 15 6 2 19 19 28 39 9 20 20 36
24 36 4 0 16 -17 27 -38z m435 -631 c519 -18 1009 -63 1440 -132 69 -10 141
-22 160 -25 36 -5 188 -32 228 -40 l22 -4 0 -415 c0 -228 -3 -415 -6 -415 -3
0 -67 11 -143 24 -431 78 -1003 141 -1503 166 -254 13 -965 13 -1178 0 -578
-35 -975 -78 -1440 -156 -113 -19 -206 -34 -207 -34 -2 0 -3 186 -3 414 0 386
1 415 18 420 24 7 293 50 497 80 385 57 851 99 1230 112 99 4 181 7 182 8 10
7 466 5 703 -3z m-2720 -865 l0 -184 -50 -7 c-83 -11 -94 -5 235 -130 110 -42
216 -82 235 -90 19 -8 90 -35 158 -62 67 -26 122 -50 122 -54 0 -4 -26 -10
-57 -13 -313 -37 -915 -154 -1347 -262 -98 -24 -180 -43 -182 -41 -1 1 52 45
118 97 67 52 167 131 222 174 56 44 135 106 176 139 41 32 84 66 95 75 11 10
44 35 72 56 29 22 51 41 50 43 -2 1 -72 22 -157 47 -361 103 -614 177 -617
180 -2 2 16 8 39 15 200 53 385 97 563 135 116 24 230 49 255 54 25 6 51 10
58 11 9 1 12 -42 12 -183z m4871 144 c106 -22 304 -67 439 -101 282 -69 283
-69 277 -75 -2 -2 -73 -24 -158 -48 -85 -25 -242 -70 -349 -101 -107 -32 -210
-61 -227 -67 -18 -5 -33 -12 -33 -16 0 -4 26 -26 58 -50 31 -23 87 -66 123
-95 95 -75 338 -266 452 -354 53 -42 96 -78 94 -80 -2 -1 -66 13 -143 32 -420
107 -923 206 -1316 261 -71 10 -128 21 -128 24 0 6 62 30 510 202 157 60 288
112 293 117 5 5 -17 12 -47 15 l-56 7 0 185 c0 101 4 184 8 184 4 0 96 -18
203 -40z m-4011 -455 c0 -91 -4 -165 -9 -165 -8 0 -134 47 -321 120 -58 23
-149 58 -202 78 -93 34 -114 52 -63 52 14 0 109 13 212 29 210 33 315 48 356
50 l27 1 0 -165z m3090 150 c137 -18 425 -63 460 -71 20 -5 -3 -17 -115 -61
-248 -96 -389 -151 -442 -172 l-53 -21 0 170 c0 155 2 170 18 170 9 0 69 -7
132 -15z"/>
<path d="M4270 6093 c-24 -3 -48 -10 -52 -16 -5 -7 -5 -80 -2 -164 8 -177 14
-160 -104 -281 -109 -112 -115 -112 -238 11 l-94 92 -5 125 c-3 69 -8 149 -11
178 l-5 52 -64 0 -63 0 -81 -87 -81 -87 0 -171 0 -170 139 -141 139 -140 6
-185 c3 -101 8 -395 11 -654 l5 -470 84 -82 83 -83 77 0 77 0 85 86 c46 47 84
93 85 102 2 48 -2 584 -7 913 l-7 376 136 144 137 144 0 176 0 175 -62 60
c-77 74 -117 105 -132 102 -6 -1 -31 -3 -56 -5z m-562 -168 c1 -55 7 -129 12
-165 l9 -65 103 -100 103 -99 60 -4 60 -4 100 102 c55 56 105 111 112 123 8
14 12 73 13 170 l0 147 24 0 c15 0 47 -22 90 -61 l66 -61 0 -148 0 -148 -122
-127 c-68 -70 -129 -139 -136 -153 -9 -21 -11 -164 -6 -672 l6 -645 -70 -67
c-67 -65 -72 -68 -119 -68 -47 0 -51 3 -115 68 l-67 67 -7 635 c-5 497 -10
641 -20 661 -7 15 -72 85 -144 156 l-130 130 0 146 0 146 67 71 c47 50 73 70
87 68 19 -3 21 -11 24 -103z"/>
<path d="M4498 3263 c6 -2 18 -2 25 0 6 3 1 5 -13 5 -14 0 -19 -2 -12 -5z"/>
<path d="M4523 3213 c9 -2 25 -2 35 0 9 3 1 5 -18 5 -19 0 -27 -2 -17 -5z"/>
<path d="M4508 3173 c7 -3 16 -2 19 1 4 3 -2 6 -13 5 -11 0 -14 -3 -6 -6z"/>
<path d="M4548 2923 c6 -2 18 -2 25 0 6 3 1 5 -13 5 -14 0 -19 -2 -12 -5z"/>
<path d="M3492 2805 c-46 -8 -91 -20 -100 -26 -14 -8 -12 -9 8 -4 54 13 416
18 484 6 38 -7 71 -10 73 -7 3 2 -19 12 -49 22 -73 23 -304 28 -416 9z"/>
<path d="M4199 2826 c-48 -14 -106 -42 -64 -32 11 3 40 10 65 16 25 7 86 13
137 14 50 0 84 4 75 8 -28 11 -164 7 -213 -6z"/>
<path d="M4465 2740 c28 -5 68 -8 90 -8 38 0 39 1 10 8 -16 4 -57 8 -90 7
l-60 0 50 -7z"/>
<path d="M3977 1777 c-13 -4 -29 -18 -34 -30 l-10 -22 -7 22 c-8 26 -36 36
-92 31 l-39 -3 -3 -98 -3 -98 28 3 c23 2 29 9 34 38 l6 35 17 -38 17 -38 76 3
c69 3 78 5 96 30 17 23 19 32 9 52 -6 14 -25 32 -42 41 -42 22 -37 34 13 30
23 -2 50 -4 60 -4 15 -1 17 -11 17 -77 l0 -75 28 3 c26 3 27 5 30 76 3 63 5
72 22 72 16 0 39 35 28 45 -8 7 -229 10 -251 2z m-107 -62 c0 -8 -4 -15 -10
-15 -5 0 -10 7 -10 15 0 8 5 15 10 15 6 0 10 -7 10 -15z m118 -54 c36 -19 27
-34 -15 -26 -49 9 -57 17 -49 52 l8 28 16 -22 c9 -11 27 -26 40 -32z"/>
<path d="M4257 1776 c-16 -13 -67 -147 -67 -177 0 -27 46 -26 55 1 9 27 61 28
68 1 4 -16 14 -20 60 -20 l56 0 3 47 3 47 25 -45 c21 -38 30 -45 55 -45 l30 0
3 98 3 97 -26 0 c-23 0 -25 -4 -25 -40 0 -51 -10 -51 -32 1 -16 37 -20 40 -50
37 l-33 -3 -5 -85 -5 -85 -23 65 c-36 101 -39 107 -61 113 -11 2 -26 0 -34 -7z
m33 -96 c0 -5 -4 -10 -10 -10 -5 0 -10 5 -10 10 0 6 5 10 10 10 6 0 10 -4 10
-10z"/>
<path d="M3663 1774 c-8 -4 -13 -26 -13 -60 0 -34 -4 -53 -10 -49 -5 3 -10 24
-10 45 0 29 -5 42 -19 50 -25 13 -108 13 -116 0 -4 -6 -3 -51 1 -100 l7 -90
43 0 c47 0 94 17 94 34 0 6 7 0 16 -12 11 -17 25 -22 57 -22 51 0 70 11 65 36
-2 13 -12 19 -33 19 -29 1 -45 28 -17 31 6 1 19 2 28 3 10 1 14 9 12 24 -2 16
-10 22 -27 22 -38 1 -37 23 1 27 25 2 33 8 33 23 0 17 -7 20 -50 22 -27 1 -56
0 -62 -3z m-83 -64 c0 -5 -7 -10 -15 -10 -8 0 -15 5 -15 10 0 6 7 10 15 10 8
0 15 -4 15 -10z m10 -75 c0 -8 -6 -15 -14 -15 -17 0 -28 14 -19 24 12 12 33 6
33 -9z"/>
<path d="M4576 1768 c-3 -7 -7 -50 -10 -95 -6 -76 -5 -83 15 -93 21 -12 89 -5
122 12 13 6 17 5 17 -7 0 -23 47 -19 53 5 8 30 55 27 66 -4 8 -21 16 -23 65
-24 48 0 56 2 57 19 3 35 4 39 14 40 6 0 14 -13 19 -30 9 -32 41 -50 58 -33 7
7 6 22 -2 47 -9 28 -9 43 0 66 25 60 -13 94 -96 87 l-39 -3 -5 -85 c-6 -92 -7
-92 -42 20 -22 71 -25 75 -54 78 -30 3 -33 0 -50 -47 l-18 -50 -12 36 c-7 20
-21 41 -31 47 -41 25 -121 33 -127 14z m100 -73 c8 -33 -3 -62 -26 -68 -26 -7
-30 0 -30 48 0 23 3 44 6 47 12 12 45 -6 50 -27z m322 3 c-6 -18 -28 -21 -28
-4 0 9 7 16 16 16 9 0 14 -5 12 -12z m-183 -28 c3 -5 1 -10 -4 -10 -6 0 -11 5
-11 10 0 6 2 10 4 10 3 0 8 -4 11 -10z"/>
<path d="M3245 1748 c-3 -7 -6 -47 -7 -88 l-3 -75 -34 83 c-32 74 -37 82 -62
82 -34 0 -38 -6 -58 -88 -10 -36 -21 -67 -26 -68 -6 -2 -19 9 -29 23 -19 26
-19 27 2 64 29 50 28 59 -6 59 -21 0 -32 -7 -42 -27 -13 -27 -14 -27 -18 -5
-3 17 -10 22 -33 22 l-30 0 6 -87 c8 -110 10 -115 37 -111 16 2 24 11 28 33
l5 29 18 -27 c15 -23 25 -27 62 -27 39 0 47 4 57 25 14 31 53 34 68 5 9 -16
18 -19 53 -16 23 3 48 5 56 5 10 1 12 11 7 41 -8 49 7 53 30 8 20 -39 31 -48
62 -48 22 0 23 2 20 98 l-3 97 -29 3 c-28 4 -29 3 -22 -37 3 -23 4 -41 1 -41
-2 0 -17 18 -31 40 -27 41 -69 55 -79 28z m-95 -98 c0 -5 -4 -10 -10 -10 -5 0
-10 5 -10 10 0 6 5 10 10 10 6 0 10 -4 10 -10z"/>
<path d="M5150 1711 c0 -21 -3 -66 -6 -100 l-7 -61 30 0 30 0 7 90 c4 49 5 94
1 100 -3 5 -17 10 -31 10 -21 0 -24 -4 -24 -39z"/>
<path d="M5226 1679 c-3 -34 -6 -79 -6 -100 0 -35 3 -39 25 -39 21 0 25 5 25
28 0 51 15 54 38 7 17 -35 27 -45 46 -45 14 0 27 3 29 8 3 4 8 49 12 100 l8
92 -27 0 c-22 0 -26 -5 -26 -27 0 -53 -16 -57 -34 -9 -16 42 -21 46 -50 46
l-33 0 -7 -61z"/>
<path d="M2832 1722 c-15 -10 -1 -177 16 -194 23 -23 42 0 41 49 -2 126 -19
169 -57 145z"/>
<path d="M5433 1722 c-7 -4 -17 -46 -22 -92 -12 -99 -5 -110 67 -110 35 0 49
6 72 29 30 30 40 30 40 0 0 -46 102 -67 138 -28 35 37 46 164 16 176 -23 9
-44 -23 -44 -66 0 -60 -10 -82 -34 -79 -20 3 -21 8 -18 81 4 76 4 77 -21 77
-27 0 -37 -15 -38 -63 -1 -33 -3 -30 -13 15 -4 16 -18 33 -34 41 -36 19 -94
29 -109 19z m85 -90 c4 -38 -12 -62 -40 -62 -14 0 -18 5 -14 16 3 9 6 31 6 51
0 30 3 34 23 31 17 -2 23 -11 25 -36z"/>
<path d="M2647 1703 c-3 -5 0 -50 6 -102 l11 -93 53 4 c74 6 103 34 103 100 0
72 -29 98 -109 98 -33 0 -62 -3 -64 -7z m111 -84 c2 -23 -2 -40 -12 -48 -24
-20 -36 -4 -36 45 0 41 2 45 23 42 17 -2 23 -10 25 -39z"/>
<path d="M2570 1658 l-1 -43 -17 28 c-20 33 -41 39 -108 35 l-49 -3 1 -53 c1
-29 5 -72 8 -97 7 -44 8 -45 44 -45 58 0 105 30 118 76 l12 39 3 -45 c4 -41 7
-45 33 -48 l28 -4 -6 74 c-11 118 -14 128 -42 128 -22 0 -24 -4 -24 -42z m-72
-40 c20 -20 15 -66 -9 -78 -26 -14 -25 -15 -33 43 -6 42 -5 47 11 47 11 0 24
-5 31 -12z"/>
<path d="M5802 1678 c-45 -23 -37 -91 14 -119 34 -18 14 -37 -22 -20 -22 10
-29 9 -35 -1 -13 -20 -11 -25 13 -42 46 -32 108 -11 123 42 5 18 -1 30 -29 57
-39 37 -46 51 -18 40 9 -4 35 -9 56 -11 21 -2 40 -5 42 -7 2 -1 -1 -34 -7 -72
-10 -72 -4 -89 27 -83 15 2 21 18 29 73 9 60 13 70 30 70 21 0 23 -12 14 -105
-4 -43 -3 -45 24 -48 24 -3 27 0 27 28 0 39 23 36 28 -3 4 -35 19 -45 76 -49
l49 -3 13 70 c18 102 17 122 -5 128 -24 6 -41 -10 -41 -40 0 -12 -5 -46 -12
-75 -11 -51 -11 -52 -19 -23 -6 21 -4 40 7 63 17 37 11 67 -15 82 -19 10 -98
24 -226 39 -44 5 -89 12 -100 15 -11 3 -30 0 -43 -6z m338 -98 c0 -5 -7 -10
-15 -10 -8 0 -15 5 -15 10 0 6 7 10 15 10 8 0 15 -4 15 -10z"/>
<path d="M2322 1625 l3 -45 -30 36 c-24 29 -36 35 -60 32 -33 -3 -35 -9 -21
-108 l7 -56 -41 4 c-45 5 -58 32 -15 32 20 0 25 5 25 26 0 22 -4 25 -27 22
-14 -2 -28 2 -30 9 -2 7 8 13 24 15 20 2 29 9 31 26 3 18 -1 22 -26 22 -16 0
-44 -3 -61 -6 -26 -6 -31 -11 -31 -36 0 -30 0 -30 -17 -10 -19 22 -30 25 -78
23 -56 -2 -59 -10 -45 -100 14 -90 27 -115 53 -105 11 4 17 17 17 39 0 27 5
34 25 39 13 3 31 19 39 34 l15 27 1 -26 c0 -15 3 -41 6 -59 l7 -32 55 6 c30 4
60 10 66 13 6 4 22 7 36 7 24 1 25 3 22 51 l-3 50 31 -42 c25 -34 38 -43 62
-43 l31 0 -6 68 c-11 117 -16 132 -44 132 -23 0 -25 -3 -21 -45z m-314 -82
c-4 -22 -22 -20 -26 1 -2 10 3 16 13 16 10 0 15 -7 13 -17z"/>
<path d="M2886 988 c-3 -24 -10 -101 -16 -173 -6 -71 -13 -147 -15 -167 l-5
-38 45 0 c40 0 45 3 45 23 0 12 7 90 15 172 8 83 15 167 15 188 0 37 -1 37
-39 37 -39 0 -40 -1 -45 -42z"/>
<path d="M3006 1008 c-6 -30 -26 -312 -26 -360 0 -33 3 -38 24 -38 23 0 23 3
30 113 4 61 11 128 15 147 6 32 9 26 35 -75 15 -60 31 -127 37 -147 l10 -38
69 0 c60 0 70 3 70 18 0 9 7 89 15 177 21 221 20 227 -7 223 -22 -3 -24 -10
-34 -125 -7 -67 -14 -127 -16 -134 -2 -7 -12 19 -22 57 -10 38 -26 99 -37 137
l-20 67 -69 0 c-64 0 -70 -2 -74 -22z"/>
<path d="M3336 998 c-3 -18 -10 -103 -16 -188 -6 -85 -13 -165 -16 -178 l-5
-23 113 3 113 3 31 46 c65 98 67 277 4 341 -27 27 -33 28 -124 28 l-95 0 -5
-32z m162 -108 c15 -28 9 -113 -10 -155 -12 -26 -47 -41 -72 -32 -13 5 -13 33
0 165 6 53 6 53 37 50 22 -2 36 -11 45 -28z"/>
<path d="M3733 1018 c-105 -27 -143 -279 -56 -372 30 -32 58 -39 133 -34 40 3
66 11 81 24 84 76 94 291 16 361 -25 23 -121 35 -174 21z m102 -54 c31 -33 39
-75 33 -169 -4 -61 -10 -80 -32 -110 -36 -47 -71 -45 -100 5 -30 51 -29 177 3
242 20 41 32 52 64 57 4 0 19 -11 32 -25z"/>
<path d="M4116 1018 c-4 -11 -36 -367 -36 -398 0 -7 17 -10 43 -8 41 3 42 4
45 43 6 96 10 105 47 105 38 0 40 -4 53 -95 l7 -50 73 -3 c53 -2 73 1 76 10
20 73 19 73 66 73 l45 0 3 -42 3 -43 56 0 c52 0 55 1 50 23 -3 12 -14 96 -23
187 -22 216 -21 212 -86 208 l-52 -3 -55 -195 c-30 -107 -56 -197 -58 -199 -7
-10 -15 11 -25 72 -10 60 -9 69 12 112 27 57 26 164 -3 193 -23 23 -234 32
-241 10z m162 -121 c5 -38 -14 -57 -54 -57 -33 0 -34 1 -34 38 0 48 6 54 50
50 30 -3 35 -7 38 -31z m242 -59 c0 -48 -10 -64 -35 -55 -11 5 -11 16 3 66 18
68 32 63 32 -11z"/>
<path d="M4695 1018 c-2 -7 -8 -78 -14 -158 -6 -80 -14 -169 -17 -198 l-7 -54
29 4 29 3 10 122 c6 67 13 124 16 127 3 4 14 -42 23 -101 26 -161 24 -155 59
-151 29 3 32 8 71 115 45 122 61 150 53 88 -4 -22 -9 -77 -13 -122 l-6 -83 46
0 c41 0 46 2 46 23 0 12 7 96 15 187 21 232 25 210 -39 210 l-53 0 -32 -90
c-18 -50 -36 -88 -41 -85 -4 3 -11 22 -15 42 -3 21 -11 59 -17 86 l-10 47 -64
0 c-43 0 -66 -4 -69 -12z"/>
<path d="M5146 1013 c-3 -10 -25 -90 -50 -178 -25 -88 -50 -175 -55 -193 -10
-32 -9 -33 16 -30 21 2 29 12 41 46 13 41 15 42 58 42 42 0 44 -1 44 -29 0
-53 8 -61 62 -61 l51 0 -6 43 c-3 23 -14 114 -23 202 -10 88 -23 163 -29 167
-5 4 -31 8 -57 8 -36 0 -48 -4 -52 -17z m37 -225 c-2 -5 -13 -8 -24 -8 -22 0
-24 20 -8 71 20 64 22 64 30 4 4 -33 5 -63 2 -67z"/>
<path d="M3939 996 c67 -72 65 -262 -4 -344 -31 -37 -31 -42 -1 -42 34 0 85
46 107 95 59 136 9 315 -89 315 l-35 0 22 -24z"/>
</g>
</svg>
